<svg width="219" height="183" viewBox="0 0 219 183" fill="none" xmlns="http://www.w3.org/2000/svg">
<path opacity="0.1" d="M112.165 16.0157C112.165 16.0157 125.315 0.131226 146.905 1.03734C168.495 1.94346 187.794 14.4872 193.779 35.2959C199.598 55.5279 194.219 73.3208 183.65 83.4528C173.399 93.2691 152.037 94.1843 152.037 94.1843M144.76 136.68C144.76 136.68 153.025 137.339 158.07 149.412C164.524 164.857 149.549 180 149.549 180C150.042 170.262 136.171 168.738 125.223 163.566C114.276 158.395 117.496 142.868 122.003 135.641C126.511 128.415 135.967 125.432 141.593 127.651C146.479 129.578 142.504 137.815 136.979 133.655C128.758 127.464 131.668 113.954 168.374 104.39C205.079 94.825 217 132.516 217 132.516C217 132.516 211.635 129.88 199.182 132.717C186.729 135.559 189.523 138.396 174.494 139.01C159.465 139.618 142.131 122.022 142.131 122.022M142.131 122.027C142.131 122.027 189.92 105.63 197.153 117.849C204.387 130.067 161.818 111.703 161.818 111.703M129.3 140.154C129.3 140.154 144.436 155.187 146.367 158.23C148.299 161.274 145.399 166.294 141.7 164.015C137.996 161.731 142.136 143.339 142.136 143.339M166.674 122.246C166.674 122.246 174.537 123.812 180.12 128.882M21.8212 30.3077C32.1973 17.6266 55.8834 6.2498 84.5422 9.29307C113.201 12.3363 130.593 23.2921 141.86 42.467C153.132 61.6419 151.519 99.9917 140.247 114.906C128.98 129.825 109.879 149.659 72.8056 148.359C37.1359 147.11 10.0846 125.134 2.60402 93.475C-4.03897 65.3579 11.4403 42.9933 21.8212 30.3077ZM51.9083 63.9804C49.1485 64.9918 48.3641 70.9822 51.9083 71.8929C55.4525 72.8082 60.1733 70.6756 59.3163 67.9344C58.4545 65.1977 55.2346 62.7631 51.9083 63.9804ZM121.776 48.7824C123.049 46.4896 120.091 42.6455 117.176 44.3479C114.256 46.0503 112.315 50.1965 114.484 51.1941C116.658 52.1918 120.241 51.5465 121.776 48.7824ZM55.4525 86.7981C54.2905 89.1412 57.428 92.8526 60.2605 91.0266C63.0929 89.2007 64.836 84.9767 62.6184 84.0752C60.4057 83.1736 56.8518 83.9745 55.4525 86.7981ZM172.426 23.8276C171.346 24.633 174.639 37.6802 171.1 38.6366C167.56 39.5931 167.182 35.8405 168.887 35.3599C170.591 34.884 177.636 45.5972 179.127 45.1671C180.619 44.7415 178.561 30.4449 181.592 30.8568C184.628 31.2641 184.753 34.7467 182.855 34.9527C180.962 35.154 173.506 23.0221 172.426 23.8276ZM105.686 29.4793C109.298 36.7145 86.4838 82.1439 80.4993 75.6227C74.5148 69.1059 114.281 35.6986 122.076 37.3232C129.871 38.9478 145.782 70.4148 138.364 76.3915C130.946 82.3682 79.8263 86.0064 80.722 80.8672C81.6178 75.7279 130.946 76.1444 133.953 83.7182C136.96 91.2921 136.35 96.0011 131.939 105.017C127.528 114.032 122.337 125.88 111.826 123.807C101.319 121.734 74.2049 89.2693 80.325 85.6723C86.4451 82.0753 103.261 120.187 97.7217 130.864C93.1074 139.765 55.1959 142.428 51.6468 128.928C47.4974 113.14 70.2976 84.0614 74.0548 85.9698C77.8121 87.8781 55.806 123.77 39.063 122.246C22.3199 120.718 14.4278 92.935 18.5869 82.7846C22.746 72.6343 70.2443 75.6959 71.3192 80.4965C72.3941 85.2925 21.521 73.4901 17.6282 67.8886C13.7354 62.2872 31.1708 28.079 47.357 30.3672C63.5432 32.6553 80.8334 74.053 76.0497 76.4235C71.2659 78.7941 49.9232 33.0672 60.275 24.1387C70.6268 15.2103 100.719 19.5166 105.686 29.4793Z" stroke="#F54748" stroke-width="2" stroke-miterlimit="10"/>
</svg>
